<svg id="圖層_1" data-name="圖層 1" xmlns="http://www.w3.org/2000/svg" xmlns:xlink="http://www.w3.org/1999/xlink" viewBox="0 0 977.65 656.42">
  <defs>
    <clipPath id="clip-path"><rect class="cls-1" x="37.8" y="31.17" width="899.96" height="600"/></clipPath>
  </defs>
  <title>tpe</title>
  <g class="cls-2">
    <path fill="white" class="cls-3" d="M724.47,308.67A127.3,127.3,0,0,0,607.69,181.76a127.35,127.35,0,0,0-239.79,0,127.3,127.3,0,0,0-71.12,224.57,127.39,127.39,0,0,0,191,139.26,127.4,127.4,0,0,0,191-139.26,127,127,0,0,0,45.68-97.66Z"/>
    <path fill="rgb(0, 50, 131)" class="cls-4" d="M489.52,222.15a58.93,58.93,0,1,0,59,58.91,58.94,58.94,0,0,0-59-58.91Zm0,87.34A28.43,28.43,0,1,1,518,281.06a28.41,28.41,0,0,1-28.44,28.43Z"/>
    <path fill="rgb(0, 50, 131)" class="cls-4" d="M724.47,308.67A127.3,127.3,0,0,0,607.69,181.76a127.35,127.35,0,0,0-239.79,0,127.3,127.3,0,0,0-71.12,224.57,127.39,127.39,0,0,0,191,139.26,127.4,127.4,0,0,0,191-139.26,127,127,0,0,0,45.68-97.66Zm-68,85.87A106.12,106.12,0,0,1,490,517.26,106.13,106.13,0,0,1,322.81,396.18,106.11,106.11,0,0,1,379.05,200.1c2.2,0,4.35,0,6.5.22a106.11,106.11,0,0,1,205.7,0c2.15-.18,4.34-.22,6.5-.22a106.1,106.1,0,0,1,58.77,194.44Z"/>
    <path fill="red" class="cls-5" d="M689.6,308.92a97.16,97.16,0,0,0-97.19-97.19c-3.06,0-6.16.18-9.18.43a97.18,97.18,0,0,0-189.63,0c-3-.25-6.06-.43-9.12-.43A97.17,97.17,0,0,0,335.82,393,97.19,97.19,0,0,0,490,503.9,97.19,97.19,0,0,0,643.47,391.56a97,97,0,0,0,46.13-82.64ZM627,385.44A85.33,85.33,0,0,1,489.62,486.28a85.35,85.35,0,0,1-138.17-99.67,85.34,85.34,0,0,1,53-161.61,85.31,85.31,0,0,1,169.64-.57,85.33,85.33,0,0,1,52.92,161Z"/>
    <polygon fill="white" class="cls-3" points="482.48 248.63 497.3 248.63 490.24 226.07 482.48 248.63"/>
    <polygon fill="white" class="cls-3" points="467.2 256.51 480.03 249.11 462.61 233.05 467.2 256.51"/>
    <polygon fill="white" class="cls-3" points="457.9 270.98 465.31 258.11 442.23 252.94 457.9 270.98"/>
    <polygon fill="white" class="cls-3" points="457.09 288.13 457.09 273.31 434.51 280.37 457.09 288.13"/>
    <polygon fill="white" class="cls-3" points="464.97 303.41 457.55 290.58 441.54 307.98 464.97 303.41"/>
    <polygon fill="white" class="cls-3" points="479.41 312.71 466.59 305.31 461.38 328.39 479.41 312.71"/>
    <polygon fill="white" class="cls-3" points="496.56 313.54 481.75 313.54 488.82 336.1 496.56 313.54"/>
    <polygon fill="white" class="cls-3" points="511.88 305.65 499.02 313.05 516.45 329.08 511.88 305.65"/>
    <polygon fill="white" class="cls-3" points="521.13 291.19 513.75 304.01 536.86 309.18 521.13 291.19"/>
    <polygon fill="white" class="cls-3" points="521.96 274.04 521.96 288.86 544.56 281.8 521.96 274.04"/>
    <polygon fill="white" class="cls-3" points="514.12 258.76 521.52 271.59 537.55 254.19 514.12 258.76"/>
    <polygon fill="white" class="cls-3" points="499.65 249.46 512.48 256.86 517.65 233.78 499.65 249.46"/>
    <path fill="rgb(0, 131, 206)" class="cls-6" d="M447.34,398a37.55,37.55,0,1,0-37.55,37.55c1.13,0,2.21,0,3.28-.12-.08-1-.12-2-.12-3s0-2.24.12-3.32a25.16,25.16,0,0,1-3.28.18,31.32,31.32,0,1,1,9.75-1.56,31.51,31.51,0,0,0-.35,4.7c0,.65,0,1.3.05,1.89A37.5,37.5,0,0,0,447.34,398Z"/>
    <path fill="rgb(257, 176, 0)" class="cls-7" d="M610.1,398a37.55,37.55,0,0,1-75,3.31,29.5,29.5,0,0,1,6.45,1.38,31.46,31.46,0,1,0-.26-6.63,38.77,38.77,0,0,0-6.2-1,37.54,37.54,0,0,1,75,3Z"/>
    <path fill="rgb(0, 0, 0)" d="M563.12,434.36a31.3,31.3,0,1,1-41-31.65,33.09,33.09,0,0,0,.34-4.69c0-.65,0-1.29,0-1.94a37.58,37.58,0,1,0,46.9,39.37,32.12,32.12,0,0,1-6.21-1.09Zm-31.26-33.2a31.27,31.27,0,0,1,31,26.61,28.9,28.9,0,0,0,6.46,1.38,37.55,37.55,0,0,0-37.42-34.23c-1.08,0-2.15,0-3.23.13.08,1,.08,2,.08,3s0,2.23-.12,3.31a29.85,29.85,0,0,1,3.27-.17Z"/>
    <path fill="rgb(0, 156, 69)" d="M487.94,435.45a37.56,37.56,0,1,1-46.89-39.37c0,.65.05,1.29.05,1.94a33.09,33.09,0,0,1-.34,4.69,31.31,31.31,0,1,0,41,31.69,35.84,35.84,0,0,0,6.2,1.05Zm-40.72-34.12c.08-1.08.12-2.19.12-3.31s0-2-.09-3c1.07-.08,2.15-.12,3.25-.12a37.55,37.55,0,0,1,37.41,34.23,29,29,0,0,1-6.46-1.38,31.29,31.29,0,0,0-30.95-26.61,29.64,29.64,0,0,0-3.28.17Z"/>
    <path fill="red" class="cls-10" d="M491.19,429.33a31.29,31.29,0,0,1-31-26.62,29.43,29.43,0,0,0-6.47-1.38,37.56,37.56,0,0,0,37.43,34.24c1.08,0,2.17,0,3.25-.12-.09-1-.14-2-.14-3s.07-2.24.16-3.32a25.2,25.2,0,0,1-3.27.18Zm0-68.86a37.55,37.55,0,0,0-37.43,34.58,38.45,38.45,0,0,1,6.19,1,31.29,31.29,0,1,1,41,31.69,31.61,31.61,0,0,0-.35,4.7c0,.65,0,1.3,0,1.89a37.54,37.54,0,0,0-9.43-73.89Z"/>
  </g>
</svg>
