<svg fill="#000" xmlns="http://www.w3.org/2000/svg" viewBox="0 0 201.94 157.69" class="logo"><path d="M148,11.87a37.43,37.43,0,0,1-.21,8.81C146.62,29,143,36.27,137.94,42.9a109.62,109.62,0,0,1-14.57,15.35c-6.57,5.86-13.57,11.21-20.46,16.68-5.19,4.12-10.39,8.23-15.21,12.79A63,63,0,0,0,77,100.23a27,27,0,0,0-4,10.15,22.42,22.42,0,0,0,2,13.11,43,43,0,0,0,8.29,11.64A91.94,91.94,0,0,0,96,145.83a176.62,176.62,0,0,0,16,10.22,1.35,1.35,0,0,1,.49.41c-.76-.21-1.51-.41-2.26-.64A162.72,162.72,0,0,1,84,145.7a98,98,0,0,1-18.09-11.33,66.42,66.42,0,0,1-22.15-32.95c-.9-2.94-1.6-6-2.22-9a19.83,19.83,0,0,1,1-10.7A41.61,41.61,0,0,1,59.9,59.84,106.38,106.38,0,0,1,81.71,49.46c9.68-3.43,19.38-6.81,29-10.33a98.53,98.53,0,0,0,19.8-9.64,53.83,53.83,0,0,0,15-13.78c.76-1.07,1.44-2.2,2.16-3.3Z" transform="translate(0.02 -0.1)"></path><path d="M120.47,151.71c.24,0,.43,0,.61,0a73.1,73.1,0,0,0,71.6-51.49,67.61,67.61,0,0,0,3.12-18.76q.69-32.89-23.11-55.66a71.28,71.28,0,0,0-21.38-13.89,72.53,72.53,0,0,0-16-4.65,69.42,69.42,0,0,0-12-1A72.12,72.12,0,0,0,74,25a69.31,69.31,0,0,0-9.72,10.68l-.47.62L58.66,33c.45-.61.9-1.25,1.38-1.86A78.61,78.61,0,0,1,106,1.94a78.88,78.88,0,0,1,70.4,19,78.14,78.14,0,0,1,23.53,40.2,76.89,76.89,0,0,1,1.84,23.23,33,33,0,0,0-.28,3.56,30.64,30.64,0,0,1-.6,5.58c-.11.8-.54,1.54-.72,2.34a79,79,0,0,1-77.55,62,4,4,0,0,1-.69,0,.41.41,0,0,1-.28-.23C121.22,155.6,120.85,153.68,120.47,151.71Z" transform="translate(0.02 -0.1)"></path><path d="M74.18,49.44c-1.58.71-3.12,1.37-4.64,2.08a73.56,73.56,0,0,0-15.42,9.26A42.06,42.06,0,0,0,39.86,81.26c0,.08-.06.16-.14.4-.07-.33-.12-.52-.15-.71A71,71,0,0,0,37,70a19.57,19.57,0,0,0-4.29-7.39,16.83,16.83,0,0,0-10-4.81,43.18,43.18,0,0,0-12.94.28c-3.12.5-6.22,1.19-9.33,1.79L0,60c.26-.47.47-.86.69-1.24a93.06,93.06,0,0,1,6.38-9.61A56.38,56.38,0,0,1,21.18,35.77a32.56,32.56,0,0,1,29.61-3.39,51.3,51.3,0,0,1,14.73,8.69A75.09,75.09,0,0,1,74.18,49.44Z" transform="translate(0.02 -0.1)"></path><path d="M96.12,83.89c10.76,23.27,17.66,47.69,22.6,72.87-1.56-.84-3-1.59-4.45-2.41a177,177,0,0,1-21.4-14.18A67,67,0,0,1,81,128.33a26.57,26.57,0,0,1-5.08-10.51,20.07,20.07,0,0,1,1.73-13.19,41.64,41.64,0,0,1,6.6-9.57A112.6,112.6,0,0,1,96,84Z" transform="translate(0.02 -0.1)"></path><path d="M156.59,76.91c1.17-.12,2.31-.28,3.46-.36a33.74,33.74,0,0,1,8.75.26,11,11,0,0,1,9.34,10.83,16.71,16.71,0,0,1-1,7.11c-1.54,3.81-4.47,5.93-8.37,6.89a28.58,28.58,0,0,1-8.2.58c-1.13,0-2.27-.17-3.4-.27l-.53-.09Zm5.89,20.41c1,0,1.92.06,2.85,0a6.59,6.59,0,0,0,6.15-5,11.92,11.92,0,0,0,.22-5.87,6.11,6.11,0,0,0-4.8-5,10.51,10.51,0,0,0-3.71-.17c-.85.09-.71.06-.71.81,0,4.83,0,9.67,0,14.5Z" transform="translate(0.02 -0.1)"></path><path d="M107.24,101.84v-.56q0-11.86,0-23.71c0-.42,0-.65.56-.72a36.91,36.91,0,0,1,11.3,0,8.09,8.09,0,0,1,3.14,1.4,5.78,5.78,0,0,1-.33,9.63c-.22.14-.45.26-.72.42a2,2,0,0,0,.25.15,6.2,6.2,0,0,1,4,5.46,6.87,6.87,0,0,1-3.41,6.7A11.2,11.2,0,0,1,117.3,102a39.94,39.94,0,0,1-9.65-.1Zm5.89-4.29a9.39,9.39,0,0,0,4.38-.44,2.89,2.89,0,0,0,1.78-2.85,2.81,2.81,0,0,0-1.81-2.76,10.17,10.17,0,0,0-4.35-.48Zm0-11c.9-.05,1.78,0,2.64-.15a4.93,4.93,0,0,0,1.63-.52,2.35,2.35,0,0,0,1.29-2.54,2.24,2.24,0,0,0-1.67-2,9.12,9.12,0,0,0-3.89-.16Z" transform="translate(0.02 -0.1)"></path><path d="M150.28,90c1.78,1.13,2.43,2.87,2.93,4.7.56,2.1,1.11,4.2,1.68,6.29.09.32.22.62.37,1h-.89c-1.54,0-3.08,0-4.62,0-.43,0-.66-.12-.77-.52-.48-1.75-1-3.51-1.46-5.26a23.68,23.68,0,0,0-.73-2.35,2.5,2.5,0,0,0-2.35-1.64c-.63,0-1.26,0-1.94,0V102h-5.87c0-.2,0-.38,0-.57q0-11.94,0-23.87c0-.45.11-.63.58-.69a37.89,37.89,0,0,1,10.74-.14,9.84,9.84,0,0,1,2.06.57,6.34,6.34,0,0,1,4.23,6,6.7,6.7,0,0,1-3.36,6.4C150.69,89.82,150.52,89.9,150.28,90Zm-7.79-2.4a21.38,21.38,0,0,0,2.41,0,5.85,5.85,0,0,0,1.9-.54,3,3,0,0,0,1.56-3.13,2.69,2.69,0,0,0-1.88-2.54,8.68,8.68,0,0,0-4-.17Z" transform="translate(0.02 -0.1)"></path><path d="M133.48,102h-5.86V76.63h5.86Z" transform="translate(0.02 -0.1)"></path><path d="M180.4,76.87h5.31v24.81H180.4Z" transform="translate(0.02 -0.1)"></path></svg>
